<svg height="16" width="10"><rect width="2" height="2" x="0" y="0" fill="black"></rect><rect width="2" height="2" x="0" y="2" fill="black"></rect><rect width="2" height="2" x="0" y="4" fill="black"></rect><rect width="2" height="2" x="0" y="6" fill="black"></rect><rect width="2" height="2" x="0" y="8" fill="black"></rect><rect width="2" height="2" x="0" y="10" fill="black"></rect><rect width="2" height="2" x="0" y="12" fill="black"></rect><rect width="2" height="2" x="0" y="14" fill="white"></rect><rect width="2" height="2" x="2" y="0" fill="black"></rect><rect width="2" height="2" x="2" y="2" fill="white"></rect><rect width="2" height="2" x="2" y="4" fill="white"></rect><rect width="2" height="2" x="2" y="6" fill="white"></rect><rect width="2" height="2" x="2" y="8" fill="white"></rect><rect width="2" height="2" x="2" y="10" fill="white"></rect><rect width="2" height="2" x="2" y="12" fill="white"></rect><rect width="2" height="2" x="2" y="14" fill="white"></rect><rect width="2" height="2" x="4" y="0" fill="black"></rect><rect width="2" height="2" x="4" y="2" fill="white"></rect><rect width="2" height="2" x="4" y="4" fill="white"></rect><rect width="2" height="2" x="4" y="6" fill="white"></rect><rect width="2" height="2" x="4" y="8" fill="white"></rect><rect width="2" height="2" x="4" y="10" fill="white"></rect><rect width="2" height="2" x="4" y="12" fill="white"></rect><rect width="2" height="2" x="4" y="14" fill="white"></rect><rect width="2" height="2" x="6" y="0" fill="black"></rect><rect width="2" height="2" x="6" y="2" fill="white"></rect><rect width="2" height="2" x="6" y="4" fill="white"></rect><rect width="2" height="2" x="6" y="6" fill="white"></rect><rect width="2" height="2" x="6" y="8" fill="white"></rect><rect width="2" height="2" x="6" y="10" fill="white"></rect><rect width="2" height="2" x="6" y="12" fill="white"></rect><rect width="2" height="2" x="6" y="14" fill="white"></rect><rect width="2" height="2" x="8" y="0" fill="black"></rect><rect width="2" height="2" x="8" y="2" fill="black"></rect><rect width="2" height="2" x="8" y="4" fill="white"></rect><rect width="2" height="2" x="8" y="6" fill="white"></rect><rect width="2" height="2" x="8" y="8" fill="white"></rect><rect width="2" height="2" x="8" y="10" fill="white"></rect><rect width="2" height="2" x="8" y="12" fill="white"></rect><rect width="2" height="2" x="8" y="14" fill="white"></rect></svg>
