<?xml version="1.0" encoding="UTF-8"?>
<!DOCTYPE svg PUBLIC "-//W3C//DTD SVG 1.1//EN" "http://www.w3.org/Graphics/SVG/1.1/DTD/svg11.dtd">
<!-- Creator: CorelDRAW X8 -->
<svg xmlns="http://www.w3.org/2000/svg" xml:space="preserve" width="60px" height="90px" version="1.1" style="shape-rendering:geometricPrecision; text-rendering:geometricPrecision; image-rendering:optimizeQuality; fill-rule:evenodd; clip-rule:evenodd"
viewBox="0 0 60 90"
 xmlns:xlink="http://www.w3.org/1999/xlink">
 <defs>
  <style type="text/css">
   <![CDATA[
    .str0 {stroke:#2B2A29;stroke-width:0.755915}
    .fil0 {fill:#FEFEFE}
    .fil1 {fill:#EBECEC}
    .fil2 {fill:#006AB7}
    .fil3 {fill:#FF0013}
   ]]>
  </style>
 </defs>
 <g id="Слой_x0020_2">
  <metadata id="CorelCorpID_0Corel-Layer"/>
  <g id="_994207687472">
   <rect class="fil0 str0" width="60.0008" height="81.4295"/>
   <rect class="fil0 str0" x="5" width="50.2252" height="90.0011"/>
   <rect class="fil1 str0" x="7" y="4" width="45.6747" height="83.4864"/>
   <g>
    <polygon class="fil2" points="31,74 31,75 32,75 32,73 31,73 31,73 30,73 30,74 30,73 29,73 28,73 28,75 26,75 26,76 26,76 26,76 28,77 26,77 26,78 26,79 29,79 29,78 27,78 29,77 29,77 29,77 27,76 28,76 28,76 29,76 29,74 30,76 30,76 30,76 "/>
    <polygon class="fil3" points="29,80 29,79 28,79 28,81 29,81 29,81 30,81 30,79 30,81 31,81 32,81 32,79 34,79 34,78 34,78 34,77 32,77 34,77 34,76 34,75 31,75 31,76 33,76 31,77 31,77 31,77 33,78 32,78 32,78 31,78 31,80 30,78 30,78 30,78 "/>
   </g>
  </g>
 </g>
</svg>
